<svg width="147px" height="110px" viewBox="0 0 147 110" version="1.1" xmlns="http://www.w3.org/2000/svg" xmlns:xlink="http://www.w3.org/1999/xlink" style="height: 50px;">
    <!-- Generator: Sketch 51.2 (57519) - http://www.bohemiancoding.com/sketch -->
    <title>Code</title>
    <desc>Created with Sketch.</desc>
    <defs/>
    <g id="Page-1" stroke="none" stroke-width="1" fill="none" fill-rule="evenodd">
        <g id="Code" transform="translate(2.000000, 1.000000)">
            
            
            <path d="M12.8,5.6 C13.6,2.8 16.2,0.7 19.3,0.7 L136.6,0.7 C140.4,0.7 143.4,3.7 143.4,7.5 L143.4,89.8 C143.4,93.3 140.8,96.2 137.4,96.6" id="Shape" stroke-width="3" stroke-linecap="round" stroke-linejoin="round" style="stroke: #a866ff !important;fill: #e2ccff !important;"/>
            <path d="M131.2,18 L131.2,99.9 C131.2,103.7 128.1,106.7 124.4,106.7 L7,106.7 C3.2,106.7 0.2,103.6 0.2,99.9 L0.2,10.8 L124,10.8 C128,10.8 131.2,14 131.2,18 Z" id="Shape" style="stroke: #FFF !important;" fill-rule="nonzero"/>
            <path d="M121.7,10.8 C126.9,10.8 131.2,15.1 131.2,20.3 L131.2,99.9 C131.2,103.7 128.3,106.7 124.7,106.7 L12.6,106.7 C9,106.7 6.1,103.6 6.1,99.9 L6.1,10.8 L121.7,10.8 Z" id="Shape" fill-rule="nonzero" style="fill: #c599ff !important;"/>
            <path d="M87.2,28 L0.2,28 L0.2,17.6 C0.2,13.8 3.2,10.8 7,10.8 L124.3,10.8 C128.1,10.8 131.1,13.8 131.1,17.6 L131.1,28 L108.2,28" id="Shape" fill-rule="nonzero" style="fill: #FFF !important;"/>
            <path d="M122.8,27.7 L130.2,27.7" id="Shape" style="stroke: #6e00ff !important;" stroke-width="3" stroke-linecap="round" stroke-linejoin="round"/>
            <path d="M113.2,27.7 L114.1,27.7" id="Shape" style="stroke: #6e00ff !important;" stroke-width="3" stroke-linecap="round" stroke-linejoin="round"/>
            <path d="M0.7,27.7 L79.5,27.7" id="Shape" style="stroke: #6e00ff !important;" stroke-width="3" stroke-linecap="round" stroke-linejoin="round"/>
            <circle id="Oval" style="stroke: #c599ff !important;" fill-rule="nonzero" cx="11.8" cy="19.5" r="2.9"/>
            <circle id="Oval" styel="fill: #e2ccff !important;" fill-rule="nonzero" cx="21.5" cy="19.5" r="2.9"/>
            <circle id="Oval" styel="fill: #e2ccff !important;" fill-rule="nonzero" cx="31.2" cy="19.5" r="2.9"/>
            <polyline id="Shape" style="stroke: #6e00ff !important;" stroke-width="3" stroke-linecap="round" stroke-linejoin="round" points="47.8 82.9 33.5 65.8 47.8 48.7"/>
            <polyline id="Shape" style="stroke: #6e00ff !important;" stroke-width="3" stroke-linecap="round" stroke-linejoin="round" points="83.9 82.9 98.2 65.8 83.9 48.7"/>
            <path d="M72.1,48.3 L59.6,84.1" id="Shape" style="stroke: #6e00ff !important;" stroke-width="3" stroke-linecap="round" stroke-linejoin="round"/>
            <path d="M0.2,67.4 L0.2,66.3" id="Shape" style="stroke: #6e00ff !important;" stroke-width="3" stroke-linecap="round" stroke-linejoin="round"/>
            <path d="M0.2,60.6 L0.2,17.5 C0.2,13.7 3.2,10.7 7,10.7 L124.3,10.7 C128.1,10.7 131.1,13.7 131.1,17.5 L131.1,99.8 C131.1,103.6 128.1,106.6 124.3,106.6 L7,106.6 C3.2,106.6 0.2,103.6 0.2,99.8 L0.2,80.5" id="Shape" style="stroke: #6e00ff !important;" stroke-width="3" stroke-linecap="round" stroke-linejoin="round"/>
        </g>
    </g>
</svg>